<svg id="Crowdfunding_Icons" enable-background="new 0 0 256 256" height="512" viewBox="0 0 256 256" width="512" xmlns="http://www.w3.org/2000/svg"><g><g><path d="m233.759 81.032h-211.518c-1.104 0-2-.896-2-2 0-1.105.896-2 2-2h211.519c1.104 0 2 .895 2 2-.001 1.105-.896 2-2.001 2z" fill="#690589"/></g><g><path d="m104.732 161.527v-43.864h46.748v43.864h42.208c16.35.021 29.587 13.447 29.567 29.797v60.656h-190.509v-60.9c.021-16.35 13.37-29.587 29.72-29.566z" fill="#f4efed"/></g><g><path d="m104.732 150.907 23.156 28.802 23.591-28.802v-33.244h-46.747z" fill="#ff9f70"/></g><g><g><path d="m193.688 161.527h-10.385c16.35.021 29.587 13.434 29.567 29.784v60.669h10.385v-60.656c.02-16.35-13.217-29.776-29.567-29.797z" fill="#d6d1cf"/></g></g><g><g><path d="m62.466 161.514 10.385.013c-16.35-.021-29.699 13.216-29.72 29.566v60.887h-10.385v-60.9c.02-16.35 13.37-29.587 29.72-29.566z" fill="#fff"/></g></g><g><path d="m69.523 252.941c-1.104 0-2-.896-2-2v-37.025c0-1.105.896-2 2-2s2 .895 2 2v37.025c0 1.105-.895 2-2 2z" fill="#690589"/></g><g><path d="m186.477 252.941c-1.105 0-2-.896-2-2v-37.025c0-1.105.895-2 2-2 1.104 0 2 .895 2 2v37.025c0 1.105-.896 2-2 2z" fill="#690589"/></g><g><path d="m223.254 253.98h-190.508c-1.104 0-2-.895-2-2v-60.9c.022-17.415 14.231-31.567 31.682-31.567h.041l40.264.013v-41.863c0-1.104.896-2 2-2h46.748c1.105 0 2 .896 2 2v41.864h40.209c17.429.023 31.589 14.288 31.566 31.799v60.654c-.002 1.105-.897 2-2.002 2zm-188.508-4h186.509v-58.656c.02-15.309-12.348-27.777-27.569-27.797h-42.206c-1.104 0-2-.895-2-2v-41.864h-42.748v41.864c0 .531-.211 1.04-.586 1.415s-.884.585-1.414.585c-.001 0-.001 0-.001 0l-42.266-.014c-.011 0-.024 0-.036 0-15.25 0-27.665 12.36-27.684 27.569v58.898z" fill="#690589"/></g><g><path d="m111.213 192.06 16.675 18.544 16.787-18.566-16.787-12.329z" fill="#8852a8"/></g><g><path d="m111.213 251.975 16.675-41.371 16.787 41.396-16.787-.012z" fill="#8852a8"/></g><g><path d="m127.888 212.604c-.001 0-.002 0-.003 0-.566-.001-1.105-.242-1.484-.663l-16.674-18.544c-.376-.419-.559-.978-.502-1.538.056-.561.347-1.071.799-1.406l16.674-12.351c.705-.523 1.667-.524 2.375-.005l16.787 12.329c.456.335.749.847.806 1.41s-.127 1.124-.506 1.543l-16.787 18.566c-.381.42-.92.659-1.485.659zm-13.717-20.246 13.721 15.259 13.814-15.278-13.813-10.145z" fill="#690589"/></g><g><path d="m144.675 254c-.001 0-.001 0-.001 0l-33.461-.025c-.664-.001-1.285-.331-1.657-.881-.371-.551-.445-1.25-.197-1.866l16.674-41.371c.305-.756 1.038-1.251 1.853-1.252h.002c.814 0 1.547.494 1.854 1.248l16.787 41.396c.25.617.177 1.317-.195 1.87-.373.55-.994.881-1.659.881zm-30.5-4.023 27.53.021-13.811-34.058z" fill="#690589"/></g><g><path d="m151.479 150.907-23.591 28.802 26.52 19.477 7.053-37.659z" fill="#f4efed"/></g><g><path d="m104.732 150.907 23.156 28.802-26.296 19.477-7.053-37.663z" fill="#f4efed"/></g><g><path d="m154.408 201.186c-.419 0-.835-.132-1.184-.388l-26.52-19.477c-.442-.325-.731-.817-.8-1.361-.068-.545.089-1.093.437-1.518l23.592-28.802c.365-.446.904-.712 1.479-.732.591-.012 1.132.21 1.526.629l9.982 10.621c.437.465.626 1.11.508 1.738l-7.054 37.659c-.126.676-.592 1.239-1.231 1.492-.238.094-.487.139-.735.139zm-23.637-21.841 22.256 16.346 6.281-33.534-7.726-8.22z" fill="#690589"/></g><g><path d="m101.592 201.186c-.247 0-.495-.045-.731-.138-.641-.252-1.108-.816-1.235-1.494l-7.054-37.664c-.119-.635.076-1.288.523-1.753l10.193-10.616c.398-.415.965-.636 1.53-.613.575.025 1.11.297 1.471.745l23.156 28.802c.341.424.495.969.425 1.508-.069.54-.355 1.028-.793 1.352l-26.295 19.478c-.349.26-.767.393-1.19.393zm-4.898-39.021 6.276 33.512 22.056-16.337-20.427-25.407z" fill="#690589"/></g><g><path d="m43.131 213.715c-1.104 0-2-.896-2-2v-12c0-1.105.896-2 2-2s2 .895 2 2v12c0 1.105-.896 2-2 2z" fill="#690589"/></g><g><path d="m203.032 91.6v-25.135h-13.909c-1.616-7.9-4.735-15.249-9.029-21.754l9.848-9.849-17.773-17.772-9.848 9.848c-6.505-4.294-13.854-7.414-21.754-9.029v-13.909h-25.135v13.909c-7.9 1.615-15.25 4.734-21.754 9.029l-9.848-9.848-17.773 17.772 9.848 9.849c-4.295 6.505-7.413 13.854-9.029 21.754h-13.908v25.135h13.909c1.616 7.9 4.734 15.249 9.029 21.754l-9.848 9.848 17.773 17.774 9.847-9.849c6.505 4.294 13.854 7.413 21.755 9.029v13.91h25.135v-13.91c7.9-1.615 15.249-4.734 21.754-9.029l9.848 9.849 17.773-17.774-9.848-9.848c4.294-6.505 7.413-13.854 9.029-21.754zm-75.033 32.695c-24.998 0-45.262-20.265-45.262-45.263 0-24.997 20.264-45.262 45.262-45.262 24.999 0 45.264 20.265 45.264 45.262 0 24.998-20.265 45.263-45.264 45.263z" fill="#526faa"/></g><g><ellipse cx="128" cy="79.032" fill="#fcc24c" rx="45.263" ry="45.263" transform="matrix(.098 -.995 .995 .098 36.844 198.701)"/></g><g><path d="m128 126.295c-26.061 0-47.263-21.202-47.263-47.263s21.202-47.263 47.263-47.263 47.263 21.202 47.263 47.263-21.203 47.263-47.263 47.263zm0-90.525c-23.855 0-43.263 19.408-43.263 43.263s19.408 43.263 43.263 43.263 43.263-19.408 43.263-43.263-19.408-43.263-43.263-43.263z" fill="#690589"/></g><g><path d="m130.816 76.26v-10.877h7.378c1.555 0 2.816-1.261 2.816-2.816s-1.261-2.816-2.816-2.816h-7.378v-5.018c0-1.555-1.261-2.816-2.816-2.816s-2.816 1.261-2.816 2.816v5.061c-5.693.439-10.194 5.201-10.194 11.005 0 5.803 4.501 10.566 10.194 11.005v10.877h-7.378c-1.555 0-2.816 1.261-2.816 2.816s1.261 2.816 2.816 2.816h7.378v5.018c0 1.555 1.261 2.816 2.816 2.816s2.816-1.261 2.816-2.816v-5.061c5.693-.439 10.193-5.201 10.193-11.005s-4.501-10.566-10.193-11.005zm-10.194-5.461c0-2.696 1.981-4.931 4.562-5.343v10.685c-2.581-.411-4.562-2.646-4.562-5.342zm10.194 21.808v-10.685c2.581.412 4.562 2.647 4.562 5.343 0 2.695-1.981 4.93-4.562 5.342z" fill="#690589"/></g><g><path d="m179.539 38.051-4.135 4.135c-1.459 1.459-1.721 3.71-.682 5.492 2.78 4.766 4.949 9.932 6.392 15.393.526 1.991 2.303 3.393 4.362 3.393h3.647c-1.616-7.9-4.735-15.249-9.029-21.754l9.848-9.849-17.773-17.771-3.607 3.607 10.977 10.977c1.761 1.761 1.761 4.616 0 6.377z" fill="#34518c"/></g><g><path d="m195.818 66.465h7.215v25.135h-7.215z" fill="#34518c"/></g><g><path d="m189.123 91.6h-3.647c-2.06 0-3.836 1.402-4.362 3.393-1.443 5.461-3.612 10.627-6.392 15.393-1.039 1.782-.777 4.033.682 5.492l4.135 4.134c1.761 1.761 1.761 4.616 0 6.377l-10.977 10.978 3.607 3.607 17.773-17.774-9.848-9.848c4.294-6.503 7.413-13.852 9.029-21.752z" fill="#34518c"/></g><g><path d="m76.461 120.014 4.135-4.135c1.459-1.459 1.721-3.71.682-5.492-2.78-4.766-4.949-9.932-6.392-15.393-.526-1.991-2.303-3.393-4.362-3.393h-3.647c1.616 7.9 4.735 15.249 9.029 21.754l-9.848 9.849 17.773 17.773 3.607-3.607-10.977-10.977c-1.761-1.763-1.761-4.618 0-6.379z" fill="#708dc8"/></g><g><path d="m52.968 66.465h7.215v25.135h-7.215z" fill="#708dc8"/></g><g><path d="m66.877 66.465h3.647c2.06 0 3.836-1.402 4.362-3.393 1.443-5.461 3.612-10.627 6.392-15.393 1.039-1.782.777-4.033-.682-5.492l-4.135-4.135c-1.761-1.761-1.761-4.616 0-6.377l10.977-10.978-3.607-3.608-17.773 17.775 9.848 9.848c-4.295 6.504-7.414 13.853-9.029 21.753z" fill="#708dc8"/></g><g><path d="m140.567 156.065h-25.135c-1.104 0-2-.895-2-2v-12.298c-6.896-1.594-13.435-4.308-19.479-8.086l-8.709 8.709c-.75.75-2.078.75-2.828 0l-17.773-17.774c-.375-.375-.586-.884-.586-1.414s.211-1.039.586-1.414l8.709-8.709c-3.777-6.043-6.492-12.582-8.087-19.479h-12.297c-1.104 0-2-.896-2-2v-25.135c0-1.104.896-2 2-2h12.297c1.595-6.896 4.309-13.435 8.087-19.479l-8.709-8.709c-.375-.375-.586-.884-.586-1.414s.211-1.039.586-1.414l17.773-17.772c.78-.781 2.047-.781 2.828 0l8.709 8.708c6.044-3.778 12.583-6.492 19.479-8.086v-12.299c0-1.105.896-2 2-2h25.135c1.104 0 2 .895 2 2v12.298c6.896 1.594 13.435 4.309 19.479 8.086l8.709-8.708c.78-.781 2.047-.781 2.828 0l17.773 17.772c.781.781.781 2.047 0 2.828l-8.708 8.709c3.778 6.044 6.492 12.583 8.087 19.479h12.298c1.104 0 2 .896 2 2v25.136c0 1.104-.896 2-2 2h-12.298c-1.595 6.896-4.309 13.436-8.087 19.479l8.708 8.709c.781.781.781 2.047 0 2.828l-17.773 17.774c-.75.75-2.078.75-2.828 0l-8.709-8.709c-6.045 3.778-12.583 6.492-19.479 8.086v12.298c0 1.104-.895 2-2 2zm-23.134-4h21.135v-11.91c0-.95.668-1.769 1.599-1.96 7.514-1.536 14.597-4.476 21.053-8.738.794-.522 1.845-.417 2.516.255l8.434 8.434 14.944-14.945-8.434-8.434c-.672-.671-.778-1.723-.255-2.516 4.261-6.455 7.201-13.538 8.738-21.053.19-.931 1.009-1.599 1.959-1.599h11.909v-21.134h-11.909c-.95 0-1.769-.668-1.959-1.599-1.537-7.515-4.477-14.598-8.738-21.053-.523-.793-.417-1.845.255-2.516l8.434-8.435-14.944-14.944-8.434 8.434c-.671.672-1.723.779-2.516.255-6.456-4.262-13.538-7.202-21.053-8.738-.931-.191-1.599-1.009-1.599-1.959v-11.91h-21.135v11.909c0 .95-.668 1.769-1.6 1.959-7.514 1.536-14.597 4.476-21.052 8.738-.793.523-1.844.418-2.516-.255l-8.434-8.434-14.945 14.945 8.434 8.435c.672.671.778 1.723.255 2.516-4.262 6.455-7.202 13.538-8.738 21.053-.19.931-1.009 1.599-1.959 1.599h-11.91v21.135h11.909c.95 0 1.769.668 1.959 1.599 1.537 7.515 4.477 14.598 8.738 21.053.523.793.417 1.845-.255 2.516l-8.434 8.434 14.945 14.945 8.434-8.434c.671-.672 1.724-.779 2.516-.255 6.456 4.262 13.539 7.202 21.053 8.738.931.19 1.6 1.009 1.6 1.96zm10.566-25.77c-26.061 0-47.262-21.202-47.262-47.263s21.202-47.262 47.262-47.262c26.061 0 47.264 21.202 47.264 47.262 0 26.061-21.203 47.263-47.264 47.263zm0-90.525c-23.855 0-43.262 19.407-43.262 43.262s19.407 43.263 43.262 43.263c23.856 0 43.264-19.408 43.264-43.263s-19.408-43.262-43.264-43.262z" fill="#690589"/></g><g><path d="m215.128 81.032c-1.104 0-2-.896-2-2v-37.114c0-1.104.896-2 2-2h22.18c1.104 0 2 .896 2 2s-.896 2-2 2h-20.18v35.114c0 1.105-.896 2-2 2z" fill="#690589"/></g><g><path d="m237.308 118.147h-22.18c-1.104 0-2-.896-2-2v-37.114c0-1.104.896-2 2-2 1.105 0 2 .896 2 2v35.114h20.18c1.104 0 2 .896 2 2s-.895 2-2 2z" fill="#690589"/></g><g><path d="m229.323 79.033c0-4.41 3.575-7.985 7.985-7.985s7.985 3.575 7.985 7.985-3.575 7.986-7.985 7.986c-4.41-.001-7.985-3.576-7.985-7.986z" fill="#526faa"/></g><g><path d="m237.308 89.018c-5.506 0-9.985-4.479-9.985-9.985s4.479-9.986 9.985-9.986 9.985 4.479 9.985 9.986c0 5.506-4.479 9.985-9.985 9.985zm0-15.971c-3.3 0-5.985 2.685-5.985 5.986 0 3.3 2.685 5.985 5.985 5.985s5.985-2.685 5.985-5.985c0-3.301-2.685-5.986-5.985-5.986z" fill="#690589"/></g><g><circle cx="237.308" cy="116.147" fill="#526faa" r="7.985"/></g><g><path d="m237.308 126.132c-5.506 0-9.985-4.479-9.985-9.985s4.479-9.986 9.985-9.986 9.985 4.479 9.985 9.986c0 5.506-4.479 9.985-9.985 9.985zm0-15.971c-3.3 0-5.985 2.685-5.985 5.986 0 3.3 2.685 5.985 5.985 5.985s5.985-2.685 5.985-5.985c0-3.301-2.685-5.986-5.985-5.986z" fill="#690589"/></g><g><path d="m229.323 41.918c0-4.41 3.575-7.985 7.985-7.985s7.985 3.575 7.985 7.985-3.575 7.986-7.985 7.986c-4.41-.001-7.985-3.576-7.985-7.986z" fill="#526faa"/></g><g><path d="m237.308 51.903c-5.506 0-9.985-4.479-9.985-9.985s4.479-9.985 9.985-9.985 9.985 4.48 9.985 9.985c0 5.506-4.479 9.985-9.985 9.985zm0-15.97c-3.3 0-5.985 2.685-5.985 5.985s2.685 5.985 5.985 5.985 5.985-2.685 5.985-5.985-2.685-5.985-5.985-5.985z" fill="#690589"/></g><g><path d="m40.872 118.147h-22.18c-1.104 0-2-.896-2-2s.896-2 2-2h20.18v-35.114c0-1.104.896-2 2-2s2 .896 2 2v37.114c0 1.105-.895 2-2 2z" fill="#690589"/></g><g><path d="m40.872 81.032c-1.104 0-2-.896-2-2v-35.114h-20.18c-1.104 0-2-.896-2-2s.896-2 2-2h22.18c1.104 0 2 .896 2 2v37.114c0 1.105-.895 2-2 2z" fill="#690589"/></g><g><path d="m26.677 79.032c0 4.41-3.575 7.985-7.985 7.985s-7.985-3.575-7.985-7.985 3.575-7.986 7.985-7.986 7.985 3.576 7.985 7.986z" fill="#526faa"/></g><g><path d="m18.692 89.018c-5.506 0-9.985-4.479-9.985-9.985s4.48-9.985 9.985-9.985 9.985 4.479 9.985 9.985c0 5.505-4.479 9.985-9.985 9.985zm0-15.971c-3.3 0-5.985 2.685-5.985 5.985s2.685 5.985 5.985 5.985 5.985-2.685 5.985-5.985-2.685-5.985-5.985-5.985z" fill="#690589"/></g><g><circle cx="18.692" cy="41.918" fill="#526faa" r="7.985"/></g><g><path d="m18.692 51.903c-5.506 0-9.985-4.479-9.985-9.985s4.48-9.985 9.985-9.985 9.985 4.48 9.985 9.985c0 5.506-4.479 9.985-9.985 9.985zm0-15.97c-3.3 0-5.985 2.685-5.985 5.985s2.685 5.985 5.985 5.985 5.985-2.685 5.985-5.985-2.685-5.985-5.985-5.985z" fill="#690589"/></g><g><path d="m26.677 116.147c0 4.41-3.575 7.985-7.985 7.985s-7.985-3.575-7.985-7.985 3.575-7.986 7.985-7.986 7.985 3.576 7.985 7.986z" fill="#526faa"/></g><g><path d="m18.692 126.132c-5.506 0-9.985-4.479-9.985-9.985s4.48-9.986 9.985-9.986 9.985 4.479 9.985 9.986c0 5.506-4.479 9.985-9.985 9.985zm0-15.971c-3.3 0-5.985 2.685-5.985 5.986 0 3.3 2.685 5.985 5.985 5.985s5.985-2.685 5.985-5.985c0-3.301-2.685-5.986-5.985-5.986z" fill="#690589"/></g></g></svg>